<?xml version="1.0" standalone="no"?>
<!DOCTYPE svg PUBLIC "-//W3C//DTD SVG 20010904//EN"
 "http://www.w3.org/TR/2001/REC-SVG-20010904/DTD/svg10.dtd">
<svg version="1.0" xmlns="http://www.w3.org/2000/svg"
 width="450.000000pt" height="450.000000pt" viewBox="0 0 450.000000 450.000000"
 preserveAspectRatio="xMidYMid meet">

<g transform="translate(0.000000,450.000000) scale(0.100000,-0.100000)"
fill="#000000" stroke="none">
<path d="M2332 2997 c-6 -6 -14 -26 -18 -42 -4 -17 -20 -61 -36 -100 -16 -38
-45 -113 -64 -165 -19 -52 -41 -104 -48 -115 -25 -38 -39 -96 -27 -108 17 -17
29 1 66 99 18 49 58 154 90 234 31 80 59 160 62 178 5 33 -6 42 -25 19z"/>
<path d="M2002 2829 c-56 -44 -102 -87 -102 -93 0 -7 28 -35 63 -61 34 -27 79
-64 100 -82 20 -18 44 -33 52 -33 34 0 10 32 -75 100 -49 39 -90 74 -90 77 0
7 5 11 104 87 71 54 94 86 63 86 -7 0 -59 -36 -115 -81z"/>
<path d="M2370 2903 c0 -14 15 -29 92 -91 43 -35 80 -67 83 -71 3 -5 -35 -42
-85 -82 -49 -40 -90 -79 -90 -86 0 -25 32 -12 94 40 35 28 79 65 100 80 20 15
36 34 36 42 0 17 -194 175 -215 175 -8 0 -15 -3 -15 -7z"/>
</g>
</svg>
